<?xml version="1.0" encoding="UTF-8" standalone="no"?>
<svg
   xmlns:osb="http://www.openswatchbook.org/uri/2009/osb"
   xmlns:dc="http://purl.org/dc/elements/1.1/"
   xmlns:cc="http://creativecommons.org/ns#"
   xmlns:rdf="http://www.w3.org/1999/02/22-rdf-syntax-ns#"
   xmlns:svg="http://www.w3.org/2000/svg"
   xmlns="http://www.w3.org/2000/svg"
   xmlns:sodipodi="http://sodipodi.sourceforge.net/DTD/sodipodi-0.dtd"
   xmlns:inkscape="http://www.inkscape.org/namespaces/inkscape"
   sodipodi:docname="slide01(9x16).svg"
   inkscape:version="1.0beta1 (08a003b, 2019-11-10)"
   id="svg8"
   version="1.1"
   viewBox="0 0 183.88541 331.25834"
   height="1252"
   width="695">
  <defs
     id="defs2">
    <inkscape:path-effect
       simplify_just_coalesce="false"
       simplify_individual_paths="false"
       helper_size="0"
       smooth_angles="360"
       threshold="0.5"
       steps="1"
       is_visible="true"
       id="path-effect2003"
       effect="simplify" />
    <linearGradient
       osb:paint="solid"
       id="linearGradient993">
      <stop
         id="stop991"
         offset="0"
         style="stop-color:#f6a5ac;stop-opacity:1;" />
    </linearGradient>
    <linearGradient
       osb:paint="solid"
       id="linearGradient987">
      <stop
         id="stop985"
         offset="0"
         style="stop-color:#f6ad01;stop-opacity:1;" />
    </linearGradient>
    <inkscape:path-effect
       effect="simplify"
       id="path-effect857"
       is_visible="true"
       steps="1"
       threshold="0.00108696"
       smooth_angles="360"
       helper_size="0"
       simplify_individual_paths="false"
       simplify_just_coalesce="false" />
    <inkscape:path-effect
       effect="simplify"
       id="path-effect1220"
       is_visible="true"
       steps="1"
       threshold="0.00108696"
       smooth_angles="360"
       helper_size="0"
       simplify_individual_paths="false"
       simplify_just_coalesce="false" />
    <inkscape:path-effect
       effect="simplify"
       id="path-effect877"
       is_visible="true"
       steps="1"
       threshold="0.00108696"
       smooth_angles="360"
       helper_size="0"
       simplify_individual_paths="false"
       simplify_just_coalesce="false" />
  </defs>
  <sodipodi:namedview
     inkscape:window-maximized="1"
     inkscape:window-y="0"
     inkscape:window-x="0"
     inkscape:window-height="1003"
     inkscape:window-width="1920"
     units="px"
     showgrid="false"
     inkscape:document-rotation="0"
     inkscape:current-layer="layer1"
     inkscape:document-units="mm"
     inkscape:cy="1141.0763"
     inkscape:cx="358.8844"
     inkscape:zoom="1"
     inkscape:pageshadow="2"
     inkscape:pageopacity="0.0"
     borderopacity="1.0"
     bordercolor="#666666"
     pagecolor="#ffffff"
     id="base" />
  <metadata
     id="metadata5">
    <rdf:RDF>
      <cc:Work
         rdf:about="">
        <dc:format>image/svg+xml</dc:format>
        <dc:type
           rdf:resource="http://purl.org/dc/dcmitype/StillImage" />
        <dc:title />
      </cc:Work>
    </rdf:RDF>
  </metadata>
  <g
     id="layer1"
     inkscape:groupmode="layer"
     inkscape:label="Layer 1">
    <rect
       y="81.655708"
       x="19.936464"
       height="30.616072"
       width="60.476189"
       id="rect833"
       style="fill:#00fe00;fill-opacity:0;stroke:#f69d01;stroke-width:1;stroke-linecap:square;paint-order:markers stroke fill" />
    <rect
       y="130.16656"
       x="19.936464"
       height="30.616072"
       width="60.476189"
       id="rect837"
       style="fill:#00fe00;fill-opacity:0;stroke:#f69d01;stroke-width:1;stroke-linecap:square;paint-order:markers stroke fill" />
    <rect
       y="180.68909"
       x="19.936464"
       height="30.616072"
       width="60.476189"
       id="rect841"
       style="fill:#00fe00;fill-opacity:0;stroke:#f69d01;stroke-width:1;stroke-linecap:square;paint-order:markers stroke fill" />
    <rect
       y="231.21191"
       x="19.936464"
       height="30.616072"
       width="60.476189"
       id="rect845"
       style="fill:#00fe00;fill-opacity:0;stroke:#f69d01;stroke-width:1;stroke-linecap:square;paint-order:markers stroke fill" />
    <rect
       style="fill:#00fe00;fill-opacity:0;stroke:#f69d01;stroke-width:1;stroke-linecap:square;paint-order:markers stroke fill"
       id="rect956"
       width="60.476189"
       height="30.616072"
       x="104.6032"
       y="81.655708" />
    <rect
       style="fill:#00fe00;fill-opacity:0;stroke:#f69d01;stroke-width:1;stroke-linecap:square;paint-order:markers stroke fill"
       id="rect958"
       width="60.476189"
       height="30.616072"
       x="104.6032"
       y="130.16656" />
    <rect
       style="fill:#00fe00;fill-opacity:0;stroke:#f69d01;stroke-width:1;stroke-linecap:square;paint-order:markers stroke fill"
       id="rect960"
       width="60.476189"
       height="30.616072"
       x="104.6032"
       y="180.68909" />
    <rect
       style="fill:#00fe00;fill-opacity:0;stroke:#f69d01;stroke-width:1;stroke-linecap:square;paint-order:markers stroke fill"
       id="rect962"
       width="60.476189"
       height="30.616072"
       x="104.6032"
       y="231.21191" />
    <g
       id="text12"
       style="font-style:normal;font-variant:normal;font-weight:bold;font-stretch:normal;font-size:16.9333px;line-height:1.25;font-family:'Nirmala UI';-inkscape-font-specification:'Nirmala UI Bold';letter-spacing:0px;word-spacing:0px;fill:#f69d01;fill-opacity:1;stroke:none;stroke-width:0.264583"
       aria-label="తెలుగు"
       transform="matrix(0.58359133,0,0,0.51438378,20.634191,-42.983183)">
      <path
         inkscape:connector-curvature="0"
         id="path9"
         style="fill:#f69d01;fill-opacity:1;stroke-width:0.264583"
         d="m 31.565984,273.7322 q 0,0.14883 0.05788,0.28939 0.05788,0.13229 0.157096,0.23978 0.107487,0.10749 0.239779,0.17363 0.14056,0.0579 0.305925,0.0579 0.32246,0 0.553971,-0.25632 0.23151,-0.25631 0.23151,-0.67799 0,-0.0909 -0.01654,-0.17363 -0.0083,-0.0827 -0.0248,-0.17364 -0.14056,-0.091 -0.338997,-0.15709 -0.198438,-0.0661 -0.380339,-0.0661 -0.314192,0 -0.553971,0.19844 -0.23151,0.19844 -0.23151,0.5457 z m -2.43086,6.04408 q -1.703255,0 -3.075781,-0.30593 -1.364258,-0.30592 -2.33164,-0.89297 -0.959115,-0.58704 -1.480013,-1.43867 -0.520899,-0.85989 -0.520899,-1.96784 0,-0.81028 0.314193,-1.54615 0.314193,-0.74415 0.851628,-1.30638 0.537434,-0.57051 1.265039,-0.90124 0.727604,-0.339 1.562695,-0.339 0.537435,0 0.959114,0.13229 0.42168,0.12403 0.744141,0.339 0.322461,0.21497 0.545703,0.49609 0.23151,0.28112 0.37207,0.57878 0.14056,0.29766 0.206706,0.59531 0.06615,0.29766 0.06615,0.55397 0,0.5209 -0.190169,1.00046 -0.19017,0.47129 -0.545703,0.83509 -0.347266,0.3638 -0.84336,0.57878 -0.487825,0.21497 -1.091406,0.21497 -0.553971,0 -0.967383,-0.1819 -0.413411,-0.19017 -0.702799,-0.46302 -0.28112,-0.27285 -0.454753,-0.57051 -0.173633,-0.30592 -0.248047,-0.53743 H 23.521 q 0,0.81028 0.396875,1.38906 0.396875,0.57877 1.124479,0.95084 0.735872,0.37207 1.769401,0.54571 1.041797,0.17363 2.323372,0.17363 1.281576,0 2.315104,-0.17363 1.041797,-0.17364 1.769401,-0.54571 0.735873,-0.37207 1.132748,-0.95084 0.396875,-0.57878 0.396875,-1.38906 h -0.04961 q -0.07441,0.23151 -0.248047,0.53743 -0.173632,0.29766 -0.46302,0.57051 -0.28112,0.27285 -0.694532,0.46302 -0.413411,0.1819 -0.967382,0.1819 -0.661459,0 -1.165821,-0.23151 -0.496093,-0.23978 -0.835091,-0.61185 -0.330729,-0.38034 -0.504362,-0.85163 -0.165364,-0.47129 -0.165364,-0.93431 0,-0.31419 0.115755,-0.69453 0.124023,-0.38034 0.37207,-0.7276 0.256315,-0.35554 0.65319,-0.63666 0.396875,-0.28112 0.942578,-0.3886 -0.14056,-0.10749 -0.314192,-0.19844 -0.173633,-0.0909 -0.355534,-0.1571 -0.173633,-0.0744 -0.347266,-0.12402 -0.173633,-0.0496 -0.322461,-0.0661 l -0.454752,-1.65364 q 1.422135,0.14883 2.4722,0.73587 1.058333,0.58705 1.876888,1.63711 0.570508,0.28939 0.992187,0.71934 0.42168,0.42994 0.694532,0.92604 0.281119,0.49609 0.421679,1.02526 0.14056,0.5209 0.14056,1.00045 0,1.00046 -0.463021,1.84382 -0.46302,0.84336 -1.389062,1.46348 -0.917773,0.61184 -2.306836,0.95084 -1.389062,0.34727 -3.249414,0.34727 z m -2.430859,-6.04408 q 0,-0.34726 -0.239779,-0.5457 -0.23151,-0.19844 -0.545703,-0.19844 -0.181901,0 -0.380338,0.0661 -0.198438,0.0661 -0.338998,0.15709 -0.01654,0.091 -0.03307,0.17364 -0.0083,0.0827 -0.0083,0.17363 0,0.42168 0.231511,0.67799 0.23151,0.25632 0.553971,0.25632 0.157096,0 0.297656,-0.0579 0.14056,-0.0661 0.239779,-0.17363 0.107487,-0.10749 0.165364,-0.23978 0.05788,-0.14056 0.05788,-0.28939 z m 4.564062,-5.91178 h -9.177734 v -1.77767 h 9.177734 z m 1.322917,3.08405 h -4.99401 v -1.77767 h 4.99401 z m 1.02526,-2.43086 q 0,-0.65319 -0.93431,-0.65319 h -4.026627 v -1.77767 h 4.026627 q 0.7028,0 1.256771,0.16536 0.553971,0.1571 0.93431,0.47129 0.388607,0.30593 0.587044,0.76895 0.206706,0.45475 0.206706,1.05833 0,0.60358 -0.206706,1.05834 -0.198437,0.44648 -0.587044,0.74414 -0.380339,0.29765 -0.93431,0.44648 -0.553971,0.14883 -1.256771,0.14883 h -2.356445 v -1.77767 h 2.356445 q 0.93431,0 0.93431,-0.65319 z" />
      <path
         inkscape:connector-curvature="0"
         id="path11"
         style="fill:#f69d01;fill-opacity:1;stroke-width:0.264583"
         d="m 43.290332,272.67387 q 0.173633,0 0.330729,-0.0662 0.157096,-0.0744 0.28112,-0.19017 0.124023,-0.11575 0.190169,-0.27285 0.07441,-0.16536 0.07441,-0.34726 0,-0.42168 -0.297656,-0.66973 -0.289388,-0.25631 -0.735873,-0.25631 -0.281119,0 -0.537434,0.091 -0.206706,0.35553 -0.206706,0.73587 0,0.44648 0.256315,0.71107 0.264583,0.26458 0.644922,0.26458 z m 2.455664,7.10241 q -1.810742,0 -3.166732,-0.39688 -1.355989,-0.40514 -2.257226,-1.12448 -0.901237,-0.71933 -1.347722,-1.70325 -0.446484,-0.99219 -0.446484,-2.17455 0,-0.63665 0.14056,-1.2733 0.14056,-0.63666 0.405143,-1.20716 0.272852,-0.57878 0.661458,-1.06661 0.396875,-0.49609 0.909506,-0.85162 0.520898,-0.36381 1.149283,-0.57051 0.628386,-0.20671 1.364258,-0.20671 0.768945,0 1.30638,0.25632 0.545703,0.25631 0.884701,0.65319 0.347265,0.38861 0.496093,0.85989 0.157097,0.47129 0.157097,0.90124 0,0.52917 -0.19017,1.00872 -0.190169,0.47129 -0.545703,0.8351 -0.347265,0.35553 -0.851627,0.5705 -0.496094,0.21498 -1.124479,0.21498 -0.471289,0 -0.851628,-0.12403 -0.380338,-0.13229 -0.677995,-0.35553 -0.297656,-0.23151 -0.504362,-0.5457 -0.206705,-0.32246 -0.330729,-0.7028 h -0.09095 q -0.165365,0.34726 -0.231511,0.68626 -0.05788,0.339 -0.05788,0.59531 0,0.74414 0.248047,1.30638 0.256315,0.56224 0.677994,0.96739 0.42168,0.40514 0.967383,0.67799 0.545703,0.26458 1.124479,0.42168 0.587045,0.1571 1.157552,0.22324 0.578776,0.0579 1.058334,0.0579 0.421679,0 0.967382,-0.0579 0.553972,-0.0661 1.132748,-0.21497 0.587044,-0.14883 1.149283,-0.38861 0.56224,-0.24804 1.000456,-0.61185 0.446484,-0.37207 0.719336,-0.86816 0.272852,-0.50436 0.272852,-1.16582 0,-0.75241 -0.314193,-1.33119 -0.314193,-0.57877 -0.810287,-0.99218 -0.487825,-0.41341 -1.091406,-0.678 -0.60358,-0.26458 -1.182356,-0.39687 l 0.305924,-1.87689 q 0.570508,0.12402 1.182357,0.32246 0.611849,0.19844 1.198893,0.49609 0.595312,0.29766 1.116211,0.7028 0.529166,0.40515 0.926041,0.95085 0.405144,0.5457 0.636654,1.24023 0.23151,0.68627 0.23151,1.55443 0,1.16582 -0.504362,2.15801 -0.504361,0.98392 -1.471744,1.70325 -0.959115,0.71934 -2.348177,1.12448 -1.389063,0.39688 -3.150195,0.39688 z m 10.186457,-2.06706 q 0.429948,0 0.768946,-0.19017 0.347265,-0.19017 0.578776,-0.50436 0.239778,-0.31419 0.363802,-0.71934 0.124023,-0.41341 0.124023,-0.85989 0,-0.90951 -0.322461,-1.65365 -0.322461,-0.75241 -0.843359,-1.31465 -0.520898,-0.5705 -1.174088,-0.94257 -0.644922,-0.37207 -1.289844,-0.5209 l 0.305924,-1.87689 q 0.611849,0.13229 1.248503,0.38034 0.644922,0.23978 1.256771,0.61185 0.611849,0.3638 1.149283,0.86816 0.545703,0.50436 0.950847,1.16582 0.405143,0.65319 0.636653,1.47175 0.239779,0.81855 0.239779,1.81901 0,1.12447 -0.322461,1.94303 -0.314193,0.81029 -0.868164,1.34772 -0.553971,0.52917 -1.30638,0.78548 -0.752409,0.25632 -1.612305,0.25632 -0.777213,0 -1.413867,-0.30593 -0.636653,-0.29765 -1.116211,-0.75241 -0.471289,-0.46302 -0.768945,-0.99218 -0.297656,-0.53744 -0.396875,-1.00046 l 1.099674,-2.34818 q 0.09095,0.53744 0.28112,1.12448 0.198438,0.58705 0.520899,1.08314 0.322461,0.48783 0.79375,0.81029 0.471289,0.31419 1.11621,0.31419 z" />
      <path
         inkscape:connector-curvature="0"
         id="path13"
         style="fill:#f69d01;fill-opacity:1;stroke-width:0.264583"
         d="m 66.796908,271.00369 q -0.570508,0 -1.066601,0.33899 -0.496094,0.33073 -0.868164,0.91778 -0.363802,0.58704 -0.578776,1.38906 -0.206706,0.79375 -0.206706,1.71152 0,0.82683 0.173633,1.7694 0.173633,0.93431 0.603581,1.98438 l -2.042253,0.66146 q -0.256315,-0.57051 -0.429948,-1.19063 -0.173633,-0.62011 -0.28112,-1.21543 -0.09922,-0.59531 -0.148828,-1.11621 -0.04134,-0.5209 -0.04134,-0.89297 0,-1.32291 0.338997,-2.46393 0.347266,-1.14101 0.975651,-1.97611 0.636654,-0.83509 1.537891,-1.31464 0.909505,-0.47956 2.033984,-0.47956 1.124479,0 2.025716,0.47956 0.909505,0.47955 1.537891,1.31464 0.636653,0.8351 0.975651,1.97611 0.347265,1.14102 0.347265,2.46393 0,0.37207 -0.04961,0.89297 -0.04134,0.5209 -0.148828,1.11621 -0.107487,0.59532 -0.28112,1.21543 -0.165364,0.62012 -0.421679,1.19063 l -2.042253,-0.66146 q 0.42168,-1.0666 0.595312,-1.99264 0.181902,-0.93431 0.181902,-1.76114 0,-0.91777 -0.214974,-1.71152 -0.206706,-0.80202 -0.578776,-1.38906 -0.363803,-0.58705 -0.859896,-0.91778 -0.496094,-0.33899 -1.066602,-0.33899 z m 1.347722,-1.15756 h -2.711979 l -2.38125,-2.35644 v -0.11576 l 1.413867,-1.38079 2.323372,2.86908 3.91914,-4.63848 1.504818,1.47174 v 0.11576 z m 6.267317,7.86309 q 0.405143,0 0.719336,-0.19017 0.314193,-0.19844 0.529166,-0.51263 0.223243,-0.32246 0.338998,-0.7276 0.115755,-0.41341 0.115755,-0.84336 0,-0.90951 -0.322461,-1.65365 -0.322461,-0.75241 -0.843359,-1.31465 -0.520899,-0.5705 -1.174089,-0.94257 -0.644922,-0.37207 -1.289843,-0.5209 l 0.305924,-1.87689 q 0.611849,0.13229 1.248503,0.38034 0.644921,0.23978 1.25677,0.61185 0.611849,0.3638 1.149284,0.86816 0.545703,0.50436 0.950846,1.16582 0.405144,0.65319 0.636654,1.47175 0.239779,0.81855 0.239779,1.81901 0,1.12447 -0.322461,1.94303 -0.314193,0.81029 -0.868164,1.34772 -0.553972,0.52917 -1.30638,0.78548 -0.752409,0.25632 -1.612305,0.25632 -0.578776,0 -1.07487,-0.19017 -0.487825,-0.19017 -0.901237,-0.50436 -0.413411,-0.3142 -0.74414,-0.71107 -0.322461,-0.39688 -0.570508,-0.81029 -0.239779,-0.41341 -0.396875,-0.81028 -0.148828,-0.39688 -0.214974,-0.7028 l 1.30638,-2.1084 q 0.09922,0.3886 0.223242,0.81855 0.124024,0.42995 0.28112,0.85163 0.165365,0.41341 0.380339,0.79375 0.214974,0.38034 0.496093,0.66973 0.28112,0.28938 0.644922,0.46302 0.363802,0.17363 0.818555,0.17363 z" />
    </g>
    <g
       id="text12-7"
       style="font-style:normal;font-variant:normal;font-weight:bold;font-stretch:normal;font-size:16.9333px;line-height:1.25;font-family:'Nirmala UI';-inkscape-font-specification:'Nirmala UI Bold';letter-spacing:0px;word-spacing:0px;fill:#f69d01;fill-opacity:1;stroke:none;stroke-width:0.264583"
       aria-label="हिन्दी"
       transform="matrix(0.73400954,0,0,0.55330755,98.140821,-53.535896)">
      <path
         inkscape:connector-curvature="0"
         id="path9-6"
         style="font-size:16.9333px;fill:#f69d01;fill-opacity:1;stroke-width:0.264583"
         d="m 36.622005,269.04411 h -1.802474 v 10.47585 h -2.158008 v -10.47585 h -1.827279 v -1.86035 h 1.860352 q -0.463021,-1.02526 -0.463021,-1.90169 0,-0.66146 0.239779,-1.24851 0.239778,-0.58704 0.735872,-1.02526 0.504362,-0.43821 1.281576,-0.68626 0.785481,-0.25631 1.868619,-0.25631 1.298112,0 2.447396,0.37207 1.157552,0.37207 2.191081,1.05833 1.033528,0.67799 1.967838,1.64538 0.93431,0.95911 1.794206,2.1332 h -1.984375 q -0.289388,-0.28939 -0.677995,-0.65319 -0.380339,-0.3638 -0.851628,-0.73587 -0.471289,-0.37207 -1.016992,-0.71934 -0.537435,-0.35553 -1.132747,-0.62838 -0.595313,-0.28112 -1.240234,-0.44649 -0.644922,-0.16536 -1.314649,-0.16536 -0.587044,0 -1.016992,0.13229 -0.429948,0.13229 -0.711068,0.37207 -0.281119,0.23978 -0.413411,0.57051 -0.132292,0.32246 -0.132292,0.71933 0,0.34727 0.09922,0.71107 0.107487,0.35553 0.322461,0.75241 h 1.934766 z" />
      <path
         inkscape:connector-curvature="0"
         id="path11-7"
         style="font-size:16.9333px;fill:#f69d01;fill-opacity:1;stroke-width:0.264583"
         d="m 42.459374,276.98161 q 0.620117,-0.23978 0.901237,-0.48783 0.28112,-0.24804 0.28112,-0.63665 0,-0.22324 -0.09922,-0.41341 -0.09095,-0.19844 -0.305924,-0.339 -0.206706,-0.14883 -0.537435,-0.23151 -0.330729,-0.0827 -0.79375,-0.0827 -0.388607,0 -0.760677,0.0744 -0.372071,0.0661 -0.661459,0.25632 -0.289388,0.1819 -0.471289,0.49609 -0.173632,0.3142 -0.173632,0.79375 0,0.50436 0.190169,0.94258 0.190169,0.42995 0.504362,0.80202 0.314192,0.37207 0.719336,0.68626 0.413411,0.30593 0.851627,0.56224 0.438216,0.25632 0.868164,0.44649 0.438216,0.19843 0.810287,0.33899 l -0.818555,1.7446 q -0.644922,-0.27285 -1.289844,-0.58704 -0.636653,-0.3142 -1.223698,-0.68627 -0.578776,-0.3638 -1.074869,-0.80202 -0.496094,-0.42994 -0.868164,-0.94257 -0.363802,-0.5209 -0.570508,-1.13275 -0.206706,-0.61185 -0.206706,-1.33119 0,-0.7276 0.206706,-1.28984 0.214974,-0.57051 0.587044,-0.99219 -0.173633,-0.25631 -0.322461,-0.53743 -0.148828,-0.28939 -0.256315,-0.57878 -0.09922,-0.28939 -0.165364,-0.57051 -0.05788,-0.28938 -0.05788,-0.55397 0,-0.34726 0.115755,-0.66972 0.115755,-0.32246 0.372071,-0.57051 0.264583,-0.24805 0.677994,-0.39688 0.413412,-0.14882 1.008724,-0.14882 h 3.373437 v -1.09968 h -7.209895 v -1.86035 h 11.302669 v 1.86035 h -1.918229 v 2.86081 h -4.936133 q -0.107487,0 -0.223242,0.0331 -0.107487,0.0248 -0.206706,0.0992 -0.09095,0.0661 -0.157096,0.19017 -0.05788,0.12402 -0.05788,0.31419 0,0.19017 0.04961,0.35554 0.05788,0.15709 0.148828,0.29765 0.868164,-0.28939 1.843815,-0.28939 0.777213,0 1.471744,0.1819 0.7028,0.17364 1.231967,0.53744 0.529166,0.3638 0.835091,0.92604 0.314192,0.56224 0.314192,1.33119 0,0.66145 -0.223242,1.14101 -0.223242,0.47129 -0.587044,0.81856 -0.355534,0.34726 -0.810286,0.59531 -0.454753,0.23978 -0.926042,0.42168 z" />
      <path
         inkscape:connector-curvature="0"
         id="path13-8"
         style="font-size:16.9333px;fill:#f69d01;fill-opacity:1;stroke-width:0.264583"
         d="m 54.52272,269.04411 h -7.747331 v -1.86035 h 7.747331 z m 1.058333,5.20072 h -4.20026 q 0,0.56224 -0.01654,0.95911 -0.01654,0.38861 -0.09095,0.63665 -0.07441,0.23978 -0.231511,0.35554 -0.157096,0.10749 -0.438216,0.10749 -0.347265,0 -0.686263,-0.14056 -0.330729,-0.14056 -0.628385,-0.37207 -0.289388,-0.23978 -0.537435,-0.54571 -0.239779,-0.31419 -0.42168,-0.65319 -0.173632,-0.339 -0.272851,-0.67799 -0.09922,-0.34727 -0.09922,-0.65319 0,-0.30593 0.09095,-0.47956 0.09922,-0.1819 0.272851,-0.26458 0.173633,-0.0827 0.42168,-0.0992 0.248047,-0.0248 0.562239,-0.0248 h 6.275586 z m 8.375716,-5.20072 h -2.52181 v 3.83646 h -3.03444 q -1.07487,0 -1.661914,0.50436 -0.587044,0.49609 -0.587044,1.49655 0,0.55397 0.181901,1.05007 0.181901,0.48782 0.51263,0.85989 0.330729,0.37207 0.785482,0.58705 0.463021,0.21497 1.016992,0.21497 0.239778,0 0.429948,-0.0248 0.198437,-0.0331 0.347265,-0.11575 -0.07441,-0.34727 -0.07441,-0.71107 0,-0.47129 0.124024,-0.9095 0.124023,-0.43822 0.363802,-0.77722 0.239778,-0.33899 0.595312,-0.53743 0.363802,-0.20671 0.826823,-0.20671 0.322461,0 0.603581,0.11576 0.28112,0.11575 0.487825,0.33899 0.214974,0.22325 0.338998,0.56224 0.124023,0.33073 0.124023,0.76068 0,0.38861 -0.107487,0.74414 -0.09922,0.34727 -0.264583,0.66146 -0.165365,0.31419 -0.388607,0.59531 -0.223242,0.27285 -0.454753,0.51263 0.553972,0.90124 1.405599,1.60404 l -1.413867,1.43867 q -0.595312,-0.52917 -1.02526,-1.10794 -0.42168,-0.57878 -0.7028,-1.20716 -0.330729,0.10748 -0.65319,0.14883 -0.322461,0.0413 -0.65319,0.0413 -0.60358,0 -1.182356,-0.16537 -0.578776,-0.17363 -1.091407,-0.47129 -0.504362,-0.30592 -0.934309,-0.73587 -0.429948,-0.42995 -0.735873,-0.95085 -0.305924,-0.52089 -0.479557,-1.11621 -0.173633,-0.60358 -0.173633,-1.2485 0,-0.93431 0.289388,-1.64538 0.297656,-0.71106 0.818555,-1.19062 0.529166,-0.47956 1.265039,-0.71934 0.735872,-0.24804 1.628841,-0.24804 h 1.314648 v -1.98438 h -6.631119 v -1.86035 h 11.310937 z" />
      <path
         inkscape:connector-curvature="0"
         id="path15"
         style="font-size:16.9333px;fill:#f69d01;fill-opacity:1;stroke-width:0.264583"
         d="m 69.165755,269.04411 h -1.802474 v 10.46758 h -2.158007 v -10.46758 h -1.827279 v -1.86035 h 1.860352 q -0.157097,-0.76895 -0.396875,-1.30638 -0.239779,-0.53744 -0.520899,-0.90124 -0.28112,-0.3638 -0.587044,-0.57051 -0.297656,-0.2067 -0.578776,-0.31419 -0.28112,-0.10749 -0.520898,-0.13229 -0.248047,-0.0331 -0.405144,-0.0331 -0.785481,0 -1.174088,0.34726 -0.388607,0.339 -0.388607,0.8599 0,0.49609 0.322461,1.0418 0.314193,0.5457 0.917773,1.09967 h -2.381249 q -0.520899,-0.62839 -0.777214,-1.28984 -0.264583,-0.66146 -0.264583,-1.28158 0,-0.5457 0.223242,-1.02526 0.223242,-0.48783 0.669726,-0.84336 0.446485,-0.35553 1.12448,-0.56224 0.669726,-0.2067 1.579231,-0.2067 1.256771,0 2.158008,0.40514 0.909505,0.39687 1.521354,1.09141 0.611849,0.68626 0.967383,1.62057 0.355534,0.93431 0.504362,2.00091 h 1.934765 z" />
    </g>
    <g
       id="text12-9"
       style="font-style:normal;font-variant:normal;font-weight:bold;font-stretch:normal;font-size:16.2278px;line-height:1.25;font-family:'Nirmala UI';-inkscape-font-specification:'Nirmala UI Bold';letter-spacing:0px;word-spacing:0px;fill:#f69d01;fill-opacity:1;stroke:none;stroke-width:0.264583"
       aria-label="ಕನ್ನಡ"
       transform="matrix(0.71191779,0,0,0.55289874,14.578669,-6.3170217)">
      <path
         inkscape:connector-curvature="0"
         id="path9-8"
         style="fill:#f69d01;fill-opacity:1;stroke-width:0.264583"
         d="m 25.646448,270.01114 h 4.564063 q 0.182245,-0.17432 0.285254,-0.38826 0.110932,-0.21394 0.110932,-0.49127 0,-0.45165 -0.27733,-0.7686 -0.269407,-0.32488 -0.721059,-0.50712 v -0.11886 h 2.297879 q 0.34072,0.32488 0.507118,0.64182 0.166398,0.31695 0.182245,0.75276 0.0079,0.24563 -0.06339,0.47542 -0.06339,0.22187 -0.174322,0.40411 h 4.120334 v 1.82246 H 34.23576 q 0.237712,0.40411 0.364491,0.85576 0.134704,0.44373 0.134704,0.935 0,0.7369 -0.285254,1.38665 -0.285254,0.64182 -0.784449,1.11724 -0.49127,0.47543 -1.164786,0.75276 -0.665593,0.27733 -1.434194,0.27733 -0.7686,0 -1.442116,-0.27733 -0.665593,-0.27733 -1.164787,-0.75276 -0.499195,-0.47542 -0.784448,-1.11724 -0.285254,-0.64975 -0.285254,-1.38665 0,-0.49127 0.126779,-0.935 0.134703,-0.45165 0.372415,-0.85576 h -2.242413 z m 5.419824,1.90962 q -0.372414,0 -0.689363,0.12678 -0.316949,0.12678 -0.546737,0.35656 -0.229788,0.22979 -0.364491,0.54674 -0.134703,0.30903 -0.134703,0.67352 0,0.36449 0.134703,0.67351 0.134703,0.30903 0.364491,0.53882 0.229788,0.22186 0.546737,0.34864 0.316949,0.12678 0.689363,0.12678 0.364492,0 0.68144,-0.12678 0.316949,-0.12678 0.546737,-0.34864 0.229788,-0.22979 0.364491,-0.53882 0.134703,-0.30902 0.134703,-0.67351 0,-0.36449 -0.134703,-0.67352 -0.134703,-0.31695 -0.364491,-0.54674 -0.229788,-0.22978 -0.546737,-0.35656 -0.316948,-0.12678 -0.68144,-0.12678 z m 3.843004,-8.70817 q 0.499195,0.3011 0.824067,0.64974 0.324873,0.34865 0.515042,0.71314 0.190169,0.35657 0.261483,0.71313 0.07924,0.35657 0.07924,0.67352 0,0.45165 -0.158474,0.95085 -0.158475,0.49127 -0.507119,0.9033 -0.348643,0.41203 -0.903304,0.68144 -0.55466,0.26941 -1.339108,0.26941 h -4.056944 v -1.81453 h 3.700377 q 0.324872,0 0.55466,-0.10301 0.237711,-0.10301 0.388262,-0.26149 0.150551,-0.16639 0.221864,-0.36449 0.07131,-0.19809 0.07131,-0.38826 0,-0.21394 -0.06339,-0.38826 -0.06339,-0.17432 -0.174322,-0.31695 -0.103008,-0.15055 -0.245635,-0.26941 -0.134703,-0.12678 -0.285254,-0.23771 z m -4.476901,5.55453 h -4.785927 v -1.81453 h 4.785927 z" />
      <path
         inkscape:connector-curvature="0"
         id="path11-5"
         style="fill:#f69d01;fill-opacity:1;stroke-width:0.264583"
         d="m 47.444601,277.15834 q -0.768601,0 -1.339109,-0.20602 -0.570508,-0.20602 -0.998389,-0.53881 -0.42788,-0.34072 -0.736905,-0.7686 -0.309025,-0.42789 -0.562585,-0.87954 -0.245635,-0.45165 -0.467499,-0.87953 -0.21394,-0.42788 -0.451652,-0.76068 -0.237712,-0.34072 -0.522965,-0.54673 -0.285254,-0.20602 -0.673517,-0.20602 -0.372414,0 -0.61805,0.15055 -0.245635,0.14263 -0.396186,0.35657 -0.15055,0.21394 -0.21394,0.45957 -0.06339,0.23771 -0.06339,0.43581 0,0.29318 0.06339,0.57051 0.06339,0.2694 0.221864,0.54673 0.158474,0.26941 0.419957,0.55466 0.269407,0.28526 0.673516,0.59428 l -1.220252,1.56097 q -0.665593,-0.4358 -1.101398,-0.91915 -0.42788,-0.48334 -0.681439,-0.97461 -0.253559,-0.4992 -0.356568,-0.99047 -0.09508,-0.49127 -0.09508,-0.94292 0,-0.62598 0.206016,-1.22818 0.206017,-0.61013 0.61805,-1.08555 0.419958,-0.48335 1.053855,-0.77652 0.633898,-0.29318 1.497583,-0.29318 0.697287,0 1.220253,0.20602 0.522965,0.20601 0.911228,0.54673 0.396186,0.3328 0.689363,0.76068 0.301102,0.42788 0.546737,0.87953 0.253559,0.45165 0.483347,0.87954 0.229788,0.42788 0.499194,0.7686 0.269407,0.33279 0.602203,0.53881 0.34072,0.20602 0.792372,0.20602 0.443728,0 0.776524,-0.1981 0.34072,-0.20601 0.570508,-0.53881 0.229788,-0.3328 0.34072,-0.75275 0.118856,-0.41996 0.118856,-0.85576 0,-0.832 -0.301102,-1.52136 -0.301101,-0.68936 -0.792372,-1.21233 -0.483346,-0.52296 -1.101397,-0.86368 -0.610126,-0.34072 -1.228176,-0.48335 l 0.293178,-1.79868 q 0.586355,0.12677 1.196481,0.35656 0.610127,0.22979 1.188558,0.57843 0.578432,0.34865 1.093473,0.82407 0.515042,0.47542 0.895381,1.1014 0.388262,0.62597 0.610126,1.41042 0.221864,0.77652 0.221864,1.72737 0,1.07763 -0.301101,1.87 -0.293178,0.79237 -0.816143,1.31534 -0.522966,0.51504 -1.2361,0.7686 -0.705211,0.25356 -1.529278,0.25356 z m -0.839915,-8.39122 H 38.3244 v -1.81453 h 8.280286 z m 3.042709,-5.55453 q 0.499194,0.3011 0.824067,0.64974 0.324872,0.34865 0.515041,0.71314 0.19017,0.35657 0.261483,0.71313 0.07924,0.35657 0.07924,0.67352 0,0.45165 -0.158474,0.95085 -0.158475,0.49127 -0.507118,0.9033 -0.348644,0.41203 -0.903304,0.68144 -0.554661,0.26941 -1.339109,0.26941 h -4.056944 v -1.81453 h 3.700377 q 0.324872,0 0.55466,-0.10301 0.237712,-0.10301 0.388262,-0.26149 0.150551,-0.16639 0.221865,-0.36449 0.07131,-0.19809 0.07131,-0.38826 0,-0.21394 -0.06339,-0.38826 -0.06339,-0.17432 -0.174322,-0.31695 -0.103008,-0.15055 -0.245635,-0.26941 -0.134703,-0.12678 -0.285254,-0.23771 z" />
      <path
         inkscape:connector-curvature="0"
         id="path13-4"
         style="fill:#f69d01;fill-opacity:1;stroke-width:0.264583"
         d="m 57.998996,276.19957 q 0,0.30902 -0.05547,0.63389 -0.04754,0.32488 -0.142627,0.6339 -0.09508,0.31695 -0.229788,0.6022 -0.126779,0.28526 -0.293177,0.52297 l 0.15055,0.20602 q 0.285254,0.40411 0.554661,0.5705 0.27733,0.1664 0.610126,0.1664 0.261483,0 0.507118,-0.12678 0.253559,-0.12678 0.530889,-0.32487 l 0.586355,0.99046 q -0.166398,0.13471 -0.364491,0.26149 -0.190169,0.1347 -0.404109,0.22979 -0.213941,0.103 -0.443729,0.15847 -0.229787,0.0634 -0.459575,0.0634 -0.348644,0 -0.641822,-0.0555 -0.293177,-0.0475 -0.55466,-0.16639 -0.253559,-0.11886 -0.475423,-0.30903 -0.221864,-0.19017 -0.435805,-0.47542 l -0.142627,-0.19017 q -0.475423,0.38034 -1.038007,0.52296 -0.55466,0.15055 -1.156863,0.15055 -0.419957,0 -0.855762,-0.0951 -0.427881,-0.0951 -0.784448,-0.30903 -0.348644,-0.20601 -0.570508,-0.54673 -0.221864,-0.3328 -0.221864,-0.82407 0,-0.45957 0.206017,-0.79237 0.21394,-0.3328 0.546737,-0.54674 0.332796,-0.21394 0.744829,-0.31695 0.412034,-0.0951 0.824067,-0.0951 0.269406,0 0.538813,0.0238 0.269406,0.0159 0.546737,0.0951 0.285253,0.0792 0.594278,0.23772 0.309026,0.16639 0.657669,0.45165 0.12678,-0.18225 0.221864,-0.53881 0.103009,-0.34865 0.103009,-0.77653 0,-0.45957 -0.12678,-0.86368 -0.118856,-0.40411 -0.34072,-0.75276 -0.21394,-0.34864 -0.515042,-0.64974 -0.293177,-0.30903 -0.641821,-0.58636 l 0.736906,-0.95084 q 0.625974,0.41203 1.053855,0.89538 0.427881,0.48334 0.689363,0.98254 0.261483,0.49127 0.372415,0.98254 0.118856,0.48335 0.118856,0.91123 z m -3.953936,1.71152 q -0.190169,0 -0.380339,0.0238 -0.182245,0.0317 -0.324872,0.0951 -0.142627,0.0713 -0.237712,0.18224 -0.08716,0.11093 -0.08716,0.26941 0,0.15055 0.08716,0.26148 0.09508,0.11886 0.237712,0.19017 0.150551,0.0792 0.348644,0.11885 0.198093,0.0396 0.412033,0.0396 0.166398,0 0.364491,-0.0396 0.198093,-0.0317 0.396186,-0.103 0.206017,-0.0713 0.396186,-0.17433 0.190169,-0.103 0.348644,-0.23771 -0.158475,-0.15847 -0.356568,-0.27733 -0.190169,-0.11885 -0.396186,-0.19809 -0.206016,-0.0713 -0.419957,-0.11093 -0.206016,-0.0396 -0.388262,-0.0396 z" />
      <path
         inkscape:connector-curvature="0"
         id="path15-1"
         style="fill:#f69d01;fill-opacity:1;stroke-width:0.264583"
         d="m 70.074743,272.11093 q 0,0.3011 0.19017,0.53089 0.198093,0.22186 0.55466,0.22186 0.126779,0 0.269406,-0.0555 0.142627,-0.0555 0.261483,-0.16639 0.118856,-0.11094 0.198093,-0.27733 0.07924,-0.1664 0.07924,-0.39619 0,-0.29318 -0.166398,-0.59428 -0.21394,-0.0792 -0.435804,-0.0792 -0.237712,0 -0.419958,0.0792 -0.174321,0.0792 -0.293177,0.19809 -0.118856,0.11886 -0.182246,0.26149 -0.05547,0.14262 -0.05547,0.27733 z m -2.622751,2.91593 q -0.158474,0.29317 -0.388262,0.66559 -0.221864,0.36449 -0.586355,0.69729 -0.356568,0.32487 -0.879533,0.54673 -0.522966,0.22187 -1.275719,0.22187 -0.89538,0 -1.592668,-0.3328 -0.689363,-0.32487 -1.164786,-0.88746 -0.4675,-0.5705 -0.713135,-1.31533 -0.245635,-0.75276 -0.245635,-1.6006 0,-0.93499 0.237711,-1.74321 0.245635,-0.81615 0.68144,-1.48966 0.443728,-0.67352 1.053855,-1.19648 0.61805,-0.53089 1.354956,-0.89539 0.736906,-0.36449 1.57682,-0.55466 0.839914,-0.19016 1.735294,-0.19016 0.649745,0 1.402499,0.16639 0.760677,0.1664 1.497583,0.56259 0.744829,0.38826 1.418346,1.03008 0.681439,0.64182 1.180634,1.60059 0.316949,0.26149 0.610126,0.61805 0.293178,0.34865 0.515042,0.77653 0.221864,0.41995 0.348644,0.9033 0.134703,0.48335 0.134703,1.01424 0,0.70521 -0.245635,1.34703 -0.245636,0.6339 -0.713135,1.12517 -0.459576,0.48334 -1.125168,0.7686 -0.665593,0.29318 -1.505507,0.29318 -0.689364,0 -1.228177,-0.22187 -0.538813,-0.22186 -0.942922,-0.54673 -0.396186,-0.3328 -0.665593,-0.69729 -0.269406,-0.37242 -0.427881,-0.66559 z m 0.507118,-2.28996 q 0.103009,0.4675 0.324873,0.91123 0.229788,0.4358 0.570507,0.78445 0.34072,0.34072 0.792372,0.54673 0.451652,0.20602 0.998389,0.20602 0.459576,0 0.879533,-0.12678 0.427881,-0.1347 0.752753,-0.41203 0.324873,-0.27733 0.522966,-0.70521 0.198093,-0.42788 0.198093,-1.03009 l -0.06339,-0.0159 q -0.316949,0.8003 -0.903304,1.18856 -0.578432,0.38827 -1.283643,0.38827 -0.499194,0 -0.919151,-0.1664 -0.419957,-0.1664 -0.728982,-0.4675 -0.301102,-0.3011 -0.475423,-0.72106 -0.166398,-0.41996 -0.166398,-0.92708 0,-0.45165 0.158474,-0.83199 0.158474,-0.38826 0.435804,-0.68144 0.285254,-0.3011 0.665593,-0.49919 0.388262,-0.19809 0.847838,-0.26941 v -0.0555 q -0.12678,-0.13471 -0.380339,-0.32488 -0.245635,-0.19017 -0.633897,-0.35656 -0.380339,-0.17433 -0.89538,-0.29318 -0.515042,-0.12678 -1.180635,-0.12678 -0.919151,0 -1.782837,0.28525 -0.855761,0.28526 -1.529277,0.82407 -0.673517,0.53881 -1.077626,1.32326 -0.40411,0.77653 -0.40411,1.77491 0,0.35657 0.118856,0.72899 0.118856,0.36449 0.348643,0.65767 0.237712,0.29317 0.586356,0.48334 0.348643,0.18225 0.816143,0.18225 0.380338,0 0.736906,-0.18225 0.356567,-0.18224 0.665592,-0.49127 0.316949,-0.30902 0.570508,-0.72106 0.253559,-0.41203 0.419957,-0.87953 z m 3.96186,-9.52431 q 0.499194,0.3011 0.824067,0.64974 0.324872,0.34865 0.515042,0.71314 0.190169,0.35657 0.261482,0.71313 0.07924,0.35657 0.07924,0.67352 0,0.45165 -0.158474,0.95085 -0.158474,0.49127 -0.507118,0.9033 -0.348644,0.41203 -0.903304,0.68144 -0.55466,0.26941 -1.339109,0.26941 h -4.056944 v -1.81453 h 3.700377 q 0.324873,0 0.55466,-0.10301 0.237712,-0.10301 0.388263,-0.26149 0.15055,-0.16639 0.221864,-0.36449 0.07131,-0.19809 0.07131,-0.38826 0,-0.21394 -0.06339,-0.38826 -0.06339,-0.17432 -0.174322,-0.31695 -0.103009,-0.15055 -0.245636,-0.26941 -0.134703,-0.12678 -0.285254,-0.23771 z m -3.034785,5.55453 h -8.280286 v -1.81453 h 8.280286 z" />
    </g>
    <g
       id="text12-2"
       style="font-style:normal;font-variant:normal;font-weight:normal;font-stretch:normal;font-size:16.9333px;line-height:1.25;font-family:'Nirmala UI';-inkscape-font-specification:'Nirmala UI';letter-spacing:0px;word-spacing:0px;fill:#f69d01;fill-opacity:1;stroke:none;stroke-width:0.264583"
       aria-label="தமிழ்"
       transform="matrix(0.64833542,0,0,0.58410218,102.42453,-13.401017)">
      <path
         inkscape:connector-curvature="0"
         id="path9-3"
         style="font-style:normal;font-variant:normal;font-weight:bold;font-stretch:normal;font-family:'Nirmala UI';-inkscape-font-specification:'Nirmala UI Bold';fill:#f69d01;fill-opacity:1;stroke-width:0.264583"
         d="m 33.12041,269.68902 v 1.95957 h 0.7028 q 1.041796,0 1.81901,0.26459 0.777213,0.25631 1.289844,0.7524 0.520898,0.4961 0.777213,1.21543 0.256315,0.71107 0.256315,1.62885 0,1.15755 -0.405143,2.05878 -0.405143,0.90124 -1.207161,1.52136 -0.79375,0.62012 -1.984375,0.94258 -1.182357,0.32246 -2.745052,0.32246 -0.429948,0 -0.901237,0 -0.463021,0 -0.926042,-0.008 -0.454752,0 -0.8847,-0.008 -0.429948,0 -0.768946,-0.008 -0.338997,0 -0.578776,0 -0.23151,0 -0.297656,0 -0.297656,0 -0.471289,0.0331 -0.173633,0.0331 -0.264583,0.0909 -0.09095,0.0661 -0.115755,0.14056 -0.02481,0.0827 -0.02481,0.1819 0,0.14056 0.03307,0.25631 0.03307,0.12403 0.124023,0.28939 h -1.87688 q -0.107487,-0.27285 -0.157096,-0.52917 -0.04961,-0.24804 -0.04961,-0.51263 0,-0.50436 0.165364,-0.85162 0.165365,-0.339 0.471289,-0.55398 0.305925,-0.2067 0.727604,-0.30592 0.42168,-0.0909 0.93431,-0.0909 0.08268,0 0.413412,0 0.338997,0 0.802018,0 0.471289,0.008 1.008724,0.008 0.545703,0.008 1.041797,0.008 0.496093,0.008 0.876432,0.008 0.388607,0 0.545703,0 0.305924,0 0.520898,-0.008 0.214974,-0.008 0.372071,-0.0248 0.165364,-0.008 0.281119,-0.0248 0.124024,-0.008 0.239779,-0.0248 0.760677,-0.11575 1.30638,-0.34726 0.545703,-0.23151 0.892969,-0.58705 0.347266,-0.35553 0.51263,-0.82682 0.165365,-0.47129 0.165365,-1.07487 0,-0.71934 -0.198438,-1.11621 -0.198437,-0.40514 -0.487825,-0.59531 -0.289388,-0.19844 -0.620117,-0.23978 -0.33073,-0.0413 -0.595313,-0.0413 H 33.12041 v 0.29765 q 0,0.59531 -0.132291,1.12448 -0.132292,0.5209 -0.380339,0.95912 -0.239779,0.42994 -0.587044,0.76894 -0.338998,0.33073 -0.760677,0.55397 -0.529167,0.27285 -1.141016,0.38034 -0.603581,0.11576 -1.190625,0.11576 -0.967383,0 -1.752864,-0.23978 -0.785482,-0.24805 -1.347722,-0.69453 -0.553971,-0.45476 -0.859895,-1.08314 -0.297657,-0.63666 -0.297657,-1.4056 0,-0.94258 0.454753,-1.59577 0.463021,-0.66146 1.397331,-0.93431 v -4.12584 h 10.202994 v 1.9761 z m -2.108398,3.90261 h -3.067513 q -0.206706,0 -0.396875,0.0413 -0.190169,0.0331 -0.338997,0.13229 -0.14056,0.0909 -0.231511,0.24805 -0.08268,0.15709 -0.08268,0.39687 0,0.26458 0.115755,0.5209 0.124024,0.24805 0.363802,0.45475 0.248047,0.19844 0.628386,0.32246 0.380338,0.12403 0.901237,0.12403 0.983919,0 1.546158,-0.48783 0.56224,-0.49609 0.56224,-1.51309 z m 0,-3.90261 h -2.397786 v 1.95957 h 2.397786 z" />
      <path
         inkscape:connector-curvature="0"
         id="path11-75"
         style="font-style:normal;font-variant:normal;font-weight:bold;font-stretch:normal;font-family:'Nirmala UI';-inkscape-font-specification:'Nirmala UI Bold';fill:#f69d01;fill-opacity:1;stroke-width:0.264583"
         d="m 54.650878,273.66604 q 0,0.45475 -0.03307,0.95085 -0.03307,0.48782 -0.09922,0.99218 -0.05788,0.50437 -0.148828,1.017 -0.09095,0.50436 -0.198438,0.98392 H 40.710644 v -9.89707 h 2.108398 v 7.92096 h 2.984831 v -4.97748 q 0,-0.78548 0.272851,-1.38079 0.28112,-0.60358 0.777214,-1.00872 0.496094,-0.40515 1.174088,-0.61185 0.686263,-0.20671 1.49655,-0.20671 0.115755,0 0.223242,0.008 0.107487,0 0.214974,0.008 -0.206706,-0.42168 -0.330729,-0.83509 -0.115755,-0.42168 -0.115755,-0.95085 0,-0.76068 0.314192,-1.33945 0.322461,-0.58705 0.876433,-0.98392 0.553971,-0.39688 1.298111,-0.59531 0.744141,-0.20671 1.595769,-0.20671 1.198893,0 2.091861,0.38861 0.901237,0.38034 1.49655,1.0914 0.595312,0.71107 0.892969,1.72806 0.297656,1.00873 0.297656,2.2655 v 9.58288 H 56.27145 v -9.26042 q 0,-1.03353 -0.165364,-1.76113 -0.165365,-0.73588 -0.51263,-1.1989 -0.338998,-0.46302 -0.868164,-0.66972 -0.520899,-0.21498 -1.240235,-0.21498 -0.446484,0 -0.818554,0.0992 -0.372071,0.0992 -0.636654,0.30593 -0.264583,0.19843 -0.413411,0.50436 -0.148828,0.30592 -0.148828,0.71933 0,0.57051 0.132291,0.97565 0.14056,0.39688 0.347266,0.69454 0.214974,0.29765 0.479557,0.53743 0.264583,0.23978 0.51263,0.49609 0.347266,0.35554 0.65319,0.81856 0.314193,0.45475 0.545703,1.0418 0.239779,0.58704 0.372071,1.32291 0.14056,0.73588 0.14056,1.64538 z m -2.248959,-0.13229 q 0,-1.07487 -0.206705,-1.85208 -0.198438,-0.78549 -0.570508,-1.28985 -0.363802,-0.50436 -0.884701,-0.74414 -0.520898,-0.23978 -1.16582,-0.23978 -0.37207,0 -0.686263,0.091 -0.305924,0.0827 -0.529166,0.28939 -0.214974,0.19844 -0.338998,0.52917 -0.115755,0.32246 -0.115755,0.80202 v 4.51445 h 4.266406 q 0.124023,-0.5457 0.173633,-1.05007 0.05788,-0.50436 0.05788,-1.05006 z" />
      <path
         inkscape:connector-curvature="0"
         id="path13-45"
         style="font-style:normal;font-variant:normal;font-weight:bold;font-stretch:normal;font-family:'Nirmala UI';-inkscape-font-specification:'Nirmala UI Bold';fill:#f69d01;fill-opacity:1;stroke-width:0.264583"
         d="m 75.536424,272.99631 q 0,0.81029 -0.132292,1.73633 -0.132292,0.91778 -0.347266,1.77767 h -6.060611 v 1.19889 h 1.686718 v 1.82728 h -2.968294 q -0.198437,0 -0.347265,0.0413 -0.14056,0.0413 -0.248047,0.11576 -0.107487,0.0744 -0.198438,0.17363 -0.09095,0.10749 -0.173632,0.22324 -0.14056,0.19844 -0.338998,0.42995 -0.190169,0.23978 -0.496094,0.44649 -0.297656,0.2067 -0.74414,0.33899 -0.446484,0.14056 -1.091406,0.14056 -0.752409,0 -1.322917,-0.19017 -0.562239,-0.1819 -0.942578,-0.50436 -0.380339,-0.31419 -0.570508,-0.73587 -0.190169,-0.42168 -0.190169,-0.90124 0,-0.40514 0.148828,-0.76894 0.157096,-0.3638 0.438216,-0.64492 0.289388,-0.27286 0.677995,-0.42995 0.396875,-0.16537 0.8847,-0.16537 0.380339,0 0.7028,0.10749 0.330729,0.0992 0.562239,0.28112 0.239779,0.17363 0.372071,0.41341 0.132291,0.23978 0.132291,0.51263 0,0.27285 -0.115755,0.47956 -0.115755,0.21497 -0.305924,0.35553 L 63.32425,278.751 q 0.07441,-0.0744 0.07441,-0.14883 0,-0.091 -0.06615,-0.14056 -0.06615,-0.0413 -0.157096,-0.0413 -0.06615,0 -0.14056,0.0248 -0.07441,0.0331 -0.148828,0.0909 -0.06615,0.0579 -0.115755,0.14883 -0.04134,0.0992 -0.04134,0.23151 0,0.2067 0.09095,0.37207 0.09922,0.17363 0.264583,0.29765 0.165365,0.12403 0.388607,0.19017 0.23151,0.0744 0.496094,0.0744 0.454752,0 0.802018,-0.23978 0.355534,-0.23151 0.719336,-0.76895 l 0.322461,-0.45475 q 0.223242,-0.31419 0.463021,-0.48783 0.248046,-0.17363 0.620117,-0.19017 v -1.19889 H 61.59619 v -8.79739 h 2.108398 v 6.82128 h 3.191537 v -4.22506 q 0,-0.678 0.272851,-1.20716 0.272852,-0.53744 0.752409,-0.90124 0.487826,-0.37207 1.149284,-0.56224 0.669726,-0.19017 1.455208,-0.19017 1.256771,0 2.191081,0.41341 0.942578,0.41342 1.570963,1.15756 0.628386,0.73587 0.93431,1.75286 0.314193,1.01699 0.314193,2.22415 z m -2.248959,-0.19017 q 0,-0.8847 -0.190169,-1.52135 -0.190169,-0.64492 -0.545703,-1.05833 -0.355534,-0.42168 -0.851627,-0.62012 -0.496094,-0.19844 -1.107943,-0.19844 -0.719336,0 -1.157552,0.35554 -0.438216,0.35553 -0.438216,1.13274 v 3.63802 h 4.067968 q 0.115756,-0.44648 0.165365,-0.85989 0.05788,-0.42168 0.05788,-0.86817 z" />
      <path
         inkscape:connector-curvature="0"
         id="path15-9"
         style="font-style:normal;font-variant:normal;font-weight:bold;font-stretch:normal;font-family:'Nirmala UI';-inkscape-font-specification:'Nirmala UI Bold';fill:#f69d01;fill-opacity:1;stroke-width:0.264583"
         d="m 66.416564,264.54618 q 0,-0.33899 0.132292,-0.63665 0.124023,-0.29766 0.338997,-0.51263 0.214974,-0.22324 0.51263,-0.34727 0.289388,-0.13229 0.628386,-0.13229 0.338997,0 0.636653,0.13229 0.297657,0.12403 0.520899,0.34727 0.214974,0.21497 0.347265,0.51263 0.124024,0.29766 0.124024,0.63665 0,0.33073 -0.124024,0.62839 -0.132291,0.28939 -0.347265,0.51263 -0.223242,0.21497 -0.520899,0.34727 -0.297656,0.12402 -0.636653,0.12402 -0.338998,0 -0.628386,-0.12402 -0.297656,-0.1323 -0.51263,-0.34727 -0.214974,-0.22324 -0.338997,-0.51263 -0.132292,-0.29766 -0.132292,-0.62839 z" />
    </g>
    <g
       id="text12-5"
       style="font-style:normal;font-variant:normal;font-weight:bold;font-stretch:normal;font-size:16.9333px;line-height:1.25;font-family:'Nirmala UI';-inkscape-font-specification:'Nirmala UI Bold';letter-spacing:0px;word-spacing:0px;fill:#f69d01;fill-opacity:1;stroke:none;stroke-width:0.265309"
       transform="matrix(0.54768432,0,0,0.61680972,-41.867454,1.9466288)"
       aria-label="മലയാളം">
      <path
         inkscape:connector-curvature="0"
         id="path9-2"
         style="font-style:normal;font-variant:normal;font-weight:bold;font-stretch:normal;font-size:14.1111px;font-family:'Nirmala UI';-inkscape-font-specification:'Nirmala UI Bold';fill:#f69d01;fill-opacity:1;stroke-width:0.265309"
         d="m 130.10552,318.2071 v -5.63618 q 0,-1.1231 0.38585,-1.94992 0.39274,-0.83372 1.08176,-1.37804 0.69591,-0.55122 1.64675,-0.81994 0.95085,-0.26871 2.08084,-0.26871 1.07487,0 1.97748,0.2825 0.90262,0.2756 1.55719,0.8406 0.66146,0.5581 1.02664,1.39871 0.36518,0.8406 0.36518,1.9637 v 5.56728 z m 5.09185,-6.6766 q 0,-0.88194 -0.34451,-1.32981 -0.33762,-0.44786 -0.95085,-0.44786 -0.39274,0 -0.75103,0.19982 -0.3514,0.19981 -0.62012,0.5581 -0.26872,0.3514 -0.43408,0.8475 -0.16536,0.49609 -0.17914,1.09554 -0.007,0.15158 -0.0138,0.29627 0,0.1447 0,0.2825 v 3.61735 q 0.93706,-0.80615 1.57096,-1.51584 0.6339,-0.70969 1.01286,-1.3367 0.38585,-0.627 0.54432,-1.18511 0.16537,-0.56499 0.16537,-1.08176 z m 3.2315,1.50206 q 0,-0.1378 -0.007,-0.2825 0,-0.14469 -0.007,-0.29627 -0.0207,-0.57189 -0.19293,-1.0542 -0.17225,-0.48232 -0.48231,-0.84061 -0.30317,-0.36518 -0.73036,-0.58566 -0.4272,-0.22738 -0.95085,-0.2825 0.41341,0.31006 0.64079,0.81304 0.23426,0.4961 0.23426,1.15755 0,0.53744 -0.17914,1.13689 -0.17915,0.59944 -0.53744,1.24023 -0.35829,0.6339 -0.88883,1.29536 -0.52365,0.66145 -1.21267,1.31602 h 4.31326 z" />
      <path
         inkscape:connector-curvature="0"
         id="path11-3"
         style="font-style:normal;font-variant:normal;font-weight:bold;font-stretch:normal;font-size:14.1111px;font-family:'Nirmala UI';-inkscape-font-specification:'Nirmala UI Bold';fill:#f69d01;fill-opacity:1;stroke-width:0.265309"
         d="m 153.89734,316.6568 v -8.32335 h 1.79834 v 9.87365 h -12.88465 v -5.4846 q 0,-1.13688 0.2756,-1.99126 0.2825,-0.85438 0.81305,-1.42627 0.53743,-0.57189 1.31602,-0.86127 0.7786,-0.28939 1.78456,-0.28939 1.07487,0 1.84657,0.28939 0.77171,0.28938 1.27469,0.86127 0.50298,0.57189 0.73725,1.42627 0.24116,0.85438 0.24116,1.99126 v 1.98438 h -6.49056 v 1.94992 z m -9.28797,-3.50021 h 4.69222 v -0.37896 q 0,-0.13092 0,-0.28939 0,-0.15848 -0.007,-0.29628 -0.0138,-0.66146 -0.19293,-1.12999 -0.17225,-0.46854 -0.48231,-0.76481 -0.31006,-0.30317 -0.73725,-0.44098 -0.42719,-0.14469 -0.93018,-0.14469 -0.46164,0 -0.87505,0.12402 -0.41341,0.12403 -0.73036,0.41342 -0.31695,0.28938 -0.51677,0.76481 -0.19292,0.47542 -0.21359,1.17822 -0.007,0.15847 -0.007,0.33073 0,0.16536 0,0.30317 z" />
      <path
         inkscape:connector-curvature="0"
         id="path13-0"
         style="font-style:normal;font-variant:normal;font-weight:bold;font-stretch:normal;font-size:14.1111px;font-family:'Nirmala UI';-inkscape-font-specification:'Nirmala UI Bold';fill:#f69d01;fill-opacity:1;stroke-width:0.265309"
         d="m 172.17013,308.1612 q 0.43408,0.5581 0.75792,1.17133 0.32384,0.61323 0.53744,1.24023 0.21359,0.62012 0.31695,1.24713 0.11024,0.62012 0.11024,1.19889 0,1.24713 -0.40652,2.2462 -0.39963,0.99219 -1.10932,1.6881 -0.70969,0.68902 -1.67432,1.06109 -0.95774,0.37207 -2.07395,0.37207 -0.32384,0 -0.67524,-0.0413 -0.34451,-0.0344 -0.68212,-0.11024 -0.33762,-0.0689 -0.65457,-0.16537 -0.31006,-0.10335 -0.55811,-0.22737 -0.47542,0.24804 -1.09554,0.39274 -0.61323,0.15158 -1.34359,0.15158 -0.86816,0 -1.62608,-0.20671 -0.75792,-0.21359 -1.39182,-0.59944 -0.6339,-0.38585 -1.13688,-0.92329 -0.49609,-0.54432 -0.8406,-1.19889 -0.34451,-0.66146 -0.53055,-1.41938 -0.17914,-0.76481 -0.17914,-1.58474 0,-1.0542 0.31694,-1.86036 0.31695,-0.80615 0.84061,-1.34358 0.52365,-0.54433 1.192,-0.81993 0.67524,-0.27561 1.39182,-0.27561 0.41341,0 0.74414,0.0827 0.33762,0.0758 0.59945,0.22738 0.26182,0.14469 0.46853,0.35829 0.20671,0.2067 0.36518,0.46164 h 0.0482 q 0.39963,-0.53744 1.04042,-0.83371 0.64768,-0.29628 1.44005,-0.29628 0.64768,0 1.24712,0.24804 0.59945,0.24116 1.06109,0.74414 0.46164,0.4961 0.73725,1.25402 0.2825,0.75792 0.2825,1.79145 0,0.65457 -0.17225,1.32292 -0.17226,0.66834 -0.46165,1.27468 -0.2825,0.59945 -0.64768,1.10932 -0.36518,0.50988 -0.75103,0.85439 0.19293,0.062 0.4961,0.11024 0.31006,0.0413 0.59255,0.0413 0.66835,0 1.25402,-0.26183 0.59256,-0.26871 1.03353,-0.76481 0.44786,-0.49609 0.7028,-1.19889 0.26182,-0.7028 0.26182,-1.57786 0,-0.53743 -0.10335,-1.09554 -0.0965,-0.56499 -0.30317,-1.1231 -0.2067,-0.56499 -0.53054,-1.11621 -0.32384,-0.5581 -0.77859,-1.08865 z m -8.41292,8.74365 q 0.19981,0 0.41341,-0.0413 0.22049,-0.0413 0.35829,-0.0965 -0.46164,-0.34451 -0.82682,-0.82683 -0.35829,-0.4892 -0.60634,-1.06109 -0.24805,-0.57188 -0.37896,-1.19889 -0.13091,-0.6339 -0.13091,-1.27468 0,-0.19982 0.0138,-0.39964 0.0207,-0.2067 0.0413,-0.39963 0.0207,-0.19292 0.0345,-0.36518 0.0207,-0.17225 0.0207,-0.31006 0,-0.24115 -0.0689,-0.46164 -0.062,-0.22048 -0.19293,-0.38585 -0.13091,-0.17225 -0.33073,-0.26872 -0.19981,-0.10335 -0.46853,-0.10335 -0.33073,0 -0.66146,0.16537 -0.32384,0.16536 -0.58567,0.50987 -0.25493,0.33762 -0.4203,0.86127 -0.15847,0.51677 -0.15847,1.23335 0,0.97151 0.30317,1.78456 0.31005,0.80615 0.8406,1.39871 0.53743,0.58566 1.25401,0.91639 0.72347,0.32384 1.5503,0.32384 z m 0.69591,-4.51997 q 0,1.17134 0.38585,2.09462 0.39274,0.9164 1.27468,1.64676 0.38585,-0.3514 0.69591,-0.78548 0.31006,-0.44098 0.53055,-0.93018 0.22048,-0.49609 0.33762,-1.03353 0.11713,-0.53743 0.11713,-1.09554 0,-0.61323 -0.11024,-1.08865 -0.11025,-0.48231 -0.31695,-0.80615 -0.19982,-0.33073 -0.48921,-0.50298 -0.28249,-0.17226 -0.64078,-0.17226 -0.39274,0 -0.72347,0.17226 -0.33073,0.17225 -0.565,0.51676 -0.23427,0.33762 -0.36518,0.8406 -0.13091,0.4961 -0.13091,1.14377 z" />
      <path
         inkscape:connector-curvature="0"
         id="path15-0"
         style="font-style:normal;font-variant:normal;font-weight:bold;font-stretch:normal;font-size:14.1111px;font-family:'Nirmala UI';-inkscape-font-specification:'Nirmala UI Bold';fill:#f69d01;fill-opacity:1;stroke-width:0.265309"
         d="m 181.22384,313.20482 q 0,-0.81305 -0.11713,-1.46072 -0.11024,-0.65457 -0.3514,-1.10243 -0.24116,-0.44787 -0.61323,-0.68902 -0.36518,-0.24116 -0.86816,-0.24116 -0.42719,0 -0.7717,0.18604 -0.33762,0.17914 -0.58567,0.51676 -0.24116,0.33762 -0.37896,0.81993 -0.13091,0.47543 -0.14469,1.06109 h -1.86725 q 0.0207,-0.87505 0.27561,-1.62608 0.26183,-0.75792 0.73725,-1.31603 0.47543,-0.5581 1.15755,-0.87505 0.68902,-0.32384 1.57097,-0.32384 0.99219,0 1.71566,0.37207 0.73036,0.36518 1.19889,1.03353 0.47542,0.66145 0.7028,1.58474 0.23426,0.9164 0.23426,2.01194 0,1.17133 -0.23426,2.13596 -0.22738,0.96462 -0.7028,1.65364 -0.46853,0.68213 -1.19889,1.06109 -0.72347,0.37896 -1.71566,0.37896 -0.88195,0 -1.57097,-0.28939 -0.68212,-0.29628 -1.16444,-0.81304 -0.47542,-0.51676 -0.73036,-1.22645 -0.25493,-0.71658 -0.27561,-1.55719 h 1.86725 q 0.0207,0.53744 0.15158,0.97152 0.1378,0.43408 0.37896,0.73725 0.24116,0.29628 0.57878,0.46164 0.34451,0.15848 0.7717,0.15848 0.50298,0 0.86816,-0.25494 0.37207,-0.26183 0.61323,-0.73725 0.24116,-0.47542 0.3514,-1.14377 0.11713,-0.66835 0.11713,-1.48828 z" />
      <path
         inkscape:connector-curvature="0"
         id="path17"
         style="font-style:normal;font-variant:normal;font-weight:bold;font-stretch:normal;font-size:14.1111px;font-family:'Nirmala UI';-inkscape-font-specification:'Nirmala UI Bold';fill:#f69d01;fill-opacity:1;stroke-width:0.265309"
         d="m 192.18613,316.55345 q 0.60634,0 1.04042,-0.0758 0.43408,-0.0758 0.70969,-0.24116 0.2825,-0.16536 0.41341,-0.4203 0.13092,-0.26183 0.13092,-0.62701 0,-0.53743 -0.4203,-0.86127 -0.42031,-0.33073 -1.30914,-0.33073 h -1.25402 v -1.51584 h 0.96463 q 0.70969,0 1.04731,-0.2825 0.33762,-0.28939 0.33762,-0.82682 0,-0.39963 -0.24805,-0.7028 -0.24115,-0.31006 -0.66835,-0.51677 -0.42719,-0.21359 -1.00596,-0.31695 -0.57189,-0.11024 -1.22646,-0.11024 -0.79237,0 -1.44005,0.13091 -0.64079,0.13092 -1.14377,0.37207 -0.49609,0.23427 -0.84749,0.57189 -0.34451,0.33762 -0.54433,0.74414 h 0.0482 q 0.27561,-0.24116 0.66835,-0.36518 0.39963,-0.13091 0.90261,-0.13091 0.41342,0 0.80616,0.15158 0.39963,0.1447 0.70969,0.43408 0.31695,0.28939 0.50987,0.70969 0.19293,0.42031 0.19293,0.95774 0,0.66146 -0.22738,1.17822 -0.22738,0.50988 -0.62701,0.86817 -0.39274,0.3514 -0.93017,0.53743 -0.53055,0.18604 -1.14377,0.18604 -0.67524,0 -1.21268,-0.24805 -0.53054,-0.25494 -0.89572,-0.68902 -0.36518,-0.43408 -0.55811,-1.01286 -0.19292,-0.57877 -0.19292,-1.23334 0,-1.06798 0.4203,-1.94304 0.42719,-0.87505 1.20578,-1.49517 0.77859,-0.62011 1.88791,-0.95773 1.10932,-0.33762 2.47358,-0.33762 1.15066,0 2.06706,0.22737 0.92328,0.22049 1.57096,0.62701 0.64768,0.40652 0.99219,0.97841 0.34451,0.57188 0.34451,1.26779 0,0.26183 -0.0689,0.52366 -0.0689,0.25493 -0.2136,0.49609 -0.14469,0.23427 -0.37207,0.43408 -0.22737,0.19982 -0.54432,0.33762 v 0.0413 q 0.39963,0.0482 0.73725,0.22049 0.34451,0.16536 0.58566,0.44786 0.24116,0.27561 0.37897,0.66835 0.1378,0.38585 0.1378,0.87506 0,0.70279 -0.26183,1.23334 -0.26183,0.52365 -0.7717,0.87505 -0.50298,0.3514 -1.24712,0.52366 -0.73725,0.17225 -1.6881,0.17225 h -4.83691 q -0.46165,0 -0.68902,0.18604 -0.22738,0.19292 -0.22738,0.51676 0,0.33073 0.22738,0.50988 0.22737,0.18603 0.68902,0.18603 h 7.85481 v 1.55029 h -7.92372 q -0.64767,0 -1.15755,-0.1378 -0.50987,-0.13091 -0.86127,-0.40652 -0.3514,-0.26872 -0.53744,-0.68213 -0.18603,-0.41341 -0.18603,-0.97152 0,-0.57188 0.19292,-0.99907 0.19293,-0.43409 0.55122,-0.72347 0.35829,-0.28939 0.85438,-0.43409 0.4961,-0.14469 1.10932,-0.14469 z m -4.59575,-4.10655 q -0.22738,0 -0.42031,0.0758 -0.18603,0.0758 -0.33072,0.21359 -0.13781,0.13781 -0.22049,0.32384 -0.0758,0.18604 -0.0758,0.40652 0,0.22738 0.0689,0.42031 0.0758,0.19292 0.20671,0.33762 0.1378,0.14469 0.33072,0.22737 0.19293,0.0827 0.4272,0.0827 0.49609,0 0.7717,-0.28938 0.27561,-0.29628 0.27561,-0.80616 0,-0.2067 -0.0689,-0.38585 -0.0689,-0.18603 -0.20671,-0.31695 -0.13091,-0.1378 -0.32384,-0.21359 -0.19292,-0.0758 -0.43408,-0.0758 z" />
      <path
         inkscape:connector-curvature="0"
         id="path19"
         style="font-style:normal;font-variant:normal;font-weight:bold;font-stretch:normal;font-size:14.1111px;font-family:'Nirmala UI';-inkscape-font-specification:'Nirmala UI Bold';fill:#f69d01;fill-opacity:1;stroke-width:0.265309"
         d="m 201.98399,316.82906 q 0.45475,0 0.84749,-0.16537 0.39274,-0.17225 0.67524,-0.47542 0.2825,-0.30317 0.44097,-0.72347 0.16537,-0.4203 0.16537,-0.93018 0,-0.50987 -0.16537,-0.93017 -0.15847,-0.42719 -0.44097,-0.73036 -0.2825,-0.31006 -0.67524,-0.47543 -0.39274,-0.17225 -0.84749,-0.17225 -0.45475,0 -0.84749,0.17225 -0.39275,0.16537 -0.67524,0.47543 -0.2825,0.30317 -0.44787,0.73036 -0.15847,0.4203 -0.15847,0.93017 0,0.50988 0.15847,0.93018 0.16537,0.4203 0.44787,0.72347 0.28249,0.30317 0.67524,0.47542 0.39274,0.16537 0.84749,0.16537 z m 0,1.55718 q -0.86127,0 -1.59853,-0.26872 -0.73725,-0.2756 -1.27468,-0.7717 -0.53744,-0.50298 -0.84749,-1.21267 -0.30317,-0.71658 -0.30317,-1.59853 0,-0.88194 0.30317,-1.59163 0.31005,-0.71658 0.84749,-1.21956 0.53743,-0.50988 1.27468,-0.7786 0.73726,-0.2756 1.59853,-0.2756 0.86127,0 1.59852,0.2756 0.73725,0.26872 1.27469,0.7786 0.53743,0.50298 0.8406,1.21956 0.31006,0.70969 0.31006,1.59163 0,0.87506 -0.31006,1.59164 -0.30317,0.70969 -0.8406,1.21267 -0.53744,0.50299 -1.27469,0.77859 -0.73725,0.26872 -1.59852,0.26872 z" />
    </g>
    <text
       id="text1277"
       y="197.25937"
       x="30.37422"
       style="font-size:5.64444px;line-height:1.25;font-family:sans-serif;stroke-width:0.264583"
       xml:space="preserve"><tspan
         style="stroke-width:0.264583"
         y="197.25937"
         x="30.37422"
         id="tspan1275"
         sodipodi:role="line" /></text>
    <g
       id="text12-4"
       style="font-style:normal;font-variant:normal;font-weight:bold;font-stretch:normal;font-size:16.9333px;line-height:1.25;font-family:'Nirmala UI';-inkscape-font-specification:'Nirmala UI Bold';letter-spacing:0px;word-spacing:0px;opacity:0.999;fill:#f69d01;fill-opacity:1;stroke:none;stroke-width:0.264583"
       aria-label="বাংলা"
       transform="matrix(0.7717391,0,0,0.63063643,96.254343,24.464089)">
      <path
         inkscape:connector-curvature="0"
         id="path9-4"
         style="font-size:16.9333px;fill:#f69d01;fill-opacity:1;stroke-width:0.264583"
         d="m 36.345021,267.02253 h -8.474935 v -1.86035 h 12.749609 v 1.86035 h -2.116667 v 10.79831 h -1.215429 q -0.314193,-0.62012 -0.810287,-1.14101 -0.496094,-0.52917 -1.116211,-0.96739 -0.611849,-0.44648 -1.322916,-0.80202 -0.711068,-0.3638 -1.463477,-0.63665 -0.74414,-0.28112 -1.504817,-0.47956 -0.752409,-0.2067 -1.463477,-0.33899 v -2.39779 q 0.181901,-0.1571 0.587044,-0.43822 0.405144,-0.28938 0.950847,-0.63665 0.545703,-0.34726 1.198893,-0.71934 0.65319,-0.37207 1.339453,-0.69453 0.686263,-0.33073 1.364258,-0.5705 0.686263,-0.24805 1.298112,-0.339 z m -3.96875,4.78731 v 0.0992 q 0.818554,0.28939 1.438672,0.56224 0.628385,0.27285 1.091406,0.53743 0.471289,0.25632 0.802018,0.4961 0.338997,0.23151 0.587044,0.44648 h 0.04961 v -4.01009 q -0.248047,0.0165 -0.711068,0.17363 -0.454753,0.14883 -1.016992,0.40515 -0.553972,0.24804 -1.149284,0.58704 -0.587044,0.33073 -1.091406,0.7028 z" />
      <path
         inkscape:connector-curvature="0"
         id="path11-4"
         style="font-size:16.9333px;fill:#f69d01;fill-opacity:1;stroke-width:0.264583"
         d="m 41.504395,268.27931 q 0,-0.25632 -0.107487,-0.47956 -0.09922,-0.23151 -0.28112,-0.40514 -0.181901,-0.17364 -0.438216,-0.27286 -0.248047,-0.0992 -0.545703,-0.0992 h -0.65319 v -1.86035 h 1.050065 q 0.198438,0 0.454753,0.0413 0.264583,0.0331 0.545703,0.1323 0.28112,0.0909 0.553971,0.24804 0.28112,0.14883 0.51263,0.37207 v -0.0661 q 0,-0.3142 0.14056,-0.5209 0.148828,-0.20671 0.380339,-0.20671 h 2.654101 v 1.86035 h -0.711068 q -0.297656,0 -0.553971,0.0992 -0.248047,0.0992 -0.438216,0.27286 -0.190169,0.17363 -0.297656,0.40514 -0.107487,0.22324 -0.107487,0.47956 v 9.2108 h -2.158008 z" />
      <path
         inkscape:connector-curvature="0"
         id="path13-1"
         style="font-size:16.9333px;fill:#f69d01;fill-opacity:1;stroke-width:0.264583"
         d="m 50.367935,278.83783 q -0.157096,-0.51263 -0.446484,-1.05833 -0.289388,-0.5457 -0.677995,-1.09141 -0.380338,-0.5457 -0.843359,-1.0666 -0.454753,-0.5209 -0.950846,-0.97565 -0.487826,-0.46302 -0.992188,-0.83509 -0.504362,-0.37207 -0.983919,-0.62012 v -0.0992 l 1.694987,-1.17408 q 0.818554,0.46302 1.604036,1.12448 0.79375,0.66145 1.455208,1.43867 0.669727,0.77721 1.157552,1.62057 0.496094,0.83509 0.719336,1.64538 l -1.637109,1.0914 z m -1.240234,-7.59023 q -0.51263,0 -0.950846,-0.19844 -0.438216,-0.19844 -0.760677,-0.52916 -0.322461,-0.339 -0.512631,-0.77722 -0.181901,-0.43821 -0.181901,-0.91777 0,-0.50436 0.19017,-0.93431 0.198437,-0.43822 0.529166,-0.76068 0.330729,-0.32246 0.760677,-0.50436 0.438216,-0.1819 0.909506,-0.1819 0.504361,0 0.942578,0.19017 0.446484,0.19017 0.768945,0.5209 0.330729,0.32246 0.520898,0.76067 0.19017,0.42995 0.19017,0.90951 0,0.51263 -0.198438,0.95084 -0.190169,0.43822 -0.520898,0.76895 -0.33073,0.33073 -0.768946,0.5209 -0.438216,0.1819 -0.917773,0.1819 z m 0,-3.15846 q -0.157096,0 -0.297656,0.0661 -0.132292,0.0579 -0.239779,0.1571 -0.09922,0.0992 -0.157096,0.23978 -0.05788,0.13229 -0.05788,0.28112 0,0.32246 0.214974,0.5457 0.214974,0.22324 0.520899,0.22324 0.157096,0 0.297656,-0.0661 0.14056,-0.0662 0.248047,-0.16537 0.107487,-0.10749 0.165364,-0.24805 0.05788,-0.14056 0.05788,-0.28938 0,-0.1571 -0.06615,-0.28939 -0.05788,-0.14056 -0.165365,-0.23978 -0.09922,-0.0992 -0.239778,-0.1571 -0.132292,-0.0579 -0.28112,-0.0579 z" />
      <path
         inkscape:connector-curvature="0"
         id="path15-2"
         style="font-size:16.9333px;fill:#f69d01;fill-opacity:1;stroke-width:0.264583"
         d="m 62.728937,277.49011 v -6.77168 q -0.305924,-0.34726 -0.669726,-0.52916 -0.355534,-0.1819 -0.735873,-0.1819 -0.289388,0 -0.578776,0.12402 -0.28112,0.11575 -0.537435,0.3638 0.0083,0.008 0.08268,0.17363 0.08268,0.1571 0.181901,0.34727 0.09922,0.19017 0.181901,0.3638 0.08268,0.16537 0.09095,0.19017 l -1.422135,0.8847 h -0.03307 q -0.08268,-0.14883 -0.181901,-0.37207 -0.09922,-0.23151 -0.239779,-0.47956 -0.132291,-0.25631 -0.305924,-0.50436 -0.165365,-0.25631 -0.388607,-0.45475 -0.214974,-0.20671 -0.487825,-0.33073 -0.264584,-0.12402 -0.595313,-0.12402 -0.272851,0 -0.496094,0.10748 -0.223242,0.0992 -0.388606,0.27285 -0.157097,0.17364 -0.248047,0.39688 -0.08268,0.21497 -0.08268,0.44648 0,0.11576 0.01654,0.24805 0.02481,0.12402 0.05788,0.22324 l 0.06614,0.008 q 0.231511,-0.24805 0.496094,-0.3638 0.272852,-0.11576 0.545703,-0.11576 0.28112,0 0.545703,0.11576 0.272852,0.10749 0.479558,0.31419 0.206705,0.19844 0.330729,0.47956 0.124023,0.28112 0.124023,0.61185 0,0.31419 -0.124023,0.62838 -0.115755,0.3142 -0.363802,0.56224 -0.239779,0.24805 -0.611849,0.40515 -0.363802,0.14882 -0.859896,0.14882 -0.587044,0 -1.066602,-0.22324 -0.479557,-0.23151 -0.818554,-0.62838 -0.338998,-0.39688 -0.520899,-0.94258 -0.181901,-0.55397 -0.181901,-1.19889 0,-0.69454 0.214974,-1.34773 0.214974,-0.65319 0.611849,-1.15755 0.396875,-0.50436 0.959115,-0.80202 0.570508,-0.30592 1.265039,-0.30592 0.553971,0 1.107942,0.21497 0.56224,0.21498 1.107943,0.73588 h 0.04961 q 0.396875,-0.4961 0.942579,-0.72761 0.553971,-0.23151 1.141015,-0.23151 0.727604,0 1.339453,0.339 v -1.3808 H 52.509406 v -1.86035 h 14.485937 v 1.86035 h -2.108398 v 10.46758 z" />
      <path
         inkscape:connector-curvature="0"
         id="path17-7"
         style="font-size:16.9333px;fill:#f69d01;fill-opacity:1;stroke-width:0.264583"
         d="m 67.863507,268.27931 q 0,-0.25632 -0.107487,-0.47956 -0.09922,-0.23151 -0.28112,-0.40514 -0.181901,-0.17364 -0.438216,-0.27286 -0.248047,-0.0992 -0.545703,-0.0992 h -0.65319 v -1.86035 h 1.050065 q 0.198437,0 0.454752,0.0413 0.264584,0.0331 0.545704,0.1323 0.281119,0.0909 0.553971,0.24804 0.28112,0.14883 0.51263,0.37207 v -0.0661 q 0,-0.3142 0.14056,-0.5209 0.148828,-0.20671 0.380338,-0.20671 h 2.654102 v 1.86035 h -0.711068 q -0.297656,0 -0.553971,0.0992 -0.248047,0.0992 -0.438216,0.27286 -0.190169,0.17363 -0.297656,0.40514 -0.107487,0.22324 -0.107487,0.47956 v 9.2108 h -2.158008 z" />
    </g>
    <g
       transform="matrix(0.6724316,0,0,0.625306,16.552979,76.436712)"
       id="text12-6"
       style="font-style:normal;font-variant:normal;font-weight:bold;font-stretch:normal;font-size:16.9333px;line-height:1.25;font-family:'Nirmala UI';-inkscape-font-specification:'Nirmala UI Bold';letter-spacing:0px;word-spacing:0px;fill:#f69d01;fill-opacity:1;stroke:none;stroke-width:0.264583"
       aria-label="मराठी">
      <path
         inkscape:connector-curvature="0"
         id="path3727"
         style="text-align:center;text-anchor:middle;fill:#f69d01;fill-opacity:1;stroke-width:0.264583"
         d="m 40.450198,269.99083 h -1.802474 v 10.46757 h -2.158008 v -4.28294 h -3.712434 v 1.18236 q 0,0.16536 -0.01654,0.34726 -0.0083,0.17364 -0.07441,0.32247 -0.05788,0.14882 -0.181901,0.24804 -0.124023,0.0992 -0.347266,0.0992 -0.305924,0 -0.661458,-0.17363 -0.355534,-0.1819 -0.719336,-0.47129 -0.363802,-0.28939 -0.702799,-0.66146 -0.330729,-0.38034 -0.587044,-0.76894 -0.256316,-0.38861 -0.413412,-0.76068 -0.157096,-0.38034 -0.157096,-0.678 0,-0.0992 0.0248,-0.19843 0.0248,-0.0992 0.107487,-0.17364 0.09095,-0.0744 0.239779,-0.12402 0.157096,-0.0496 0.42168,-0.0496 h 0.909505 v -4.32428 h -2.89388 v -1.86035 h 12.724804 z m -7.672916,0 v 4.32428 h 3.712434 v -4.32428 z" />
      <path
         inkscape:connector-curvature="0"
         id="path3729"
         style="text-align:center;text-anchor:middle;fill:#f69d01;fill-opacity:1;stroke-width:0.264583"
         d="m 49.446031,269.99083 h -2.769857 q 0.314193,0.64492 0.496094,1.2733 0.190169,0.62012 0.190169,1.29812 0,0.60358 -0.165364,1.13274 -0.157096,0.52917 -0.496094,0.95912 -0.338997,0.42168 -0.868164,0.71933 -0.520898,0.29766 -1.248502,0.42995 l -0.01654,0.0331 q 0.347266,0.4961 0.7028,0.95912 0.363802,0.46302 0.760677,0.9095 0.396875,0.44649 0.843359,0.8847 0.446484,0.43822 0.975651,0.88471 l -1.364258,1.51308 q -0.65319,-0.51263 -1.256771,-1.12448 -0.60358,-0.62012 -1.149283,-1.28984 -0.545703,-0.66973 -1.025261,-1.35599 -0.479557,-0.68626 -0.8847,-1.33945 -0.396875,-0.65319 -0.719336,-1.24024 -0.314193,-0.59531 -0.537435,-1.0666 l 1.827279,-0.93431 q 0.281119,0.74414 0.60358,1.05007 0.322461,0.30592 0.677995,0.30592 0.23151,0 0.438216,-0.10749 0.206706,-0.10748 0.363802,-0.31419 0.157097,-0.21497 0.248047,-0.51263 0.09922,-0.30592 0.09922,-0.7028 0,-0.55397 -0.198438,-1.19062 -0.198437,-0.63666 -0.578776,-1.17409 h -4.530989 v -1.86035 h 9.582877 z" />
      <path
         inkscape:connector-curvature="0"
         id="path3731"
         style="text-align:center;text-anchor:middle;fill:#f69d01;fill-opacity:1;stroke-width:0.264583"
         d="m 54.646747,269.99083 h -1.802474 v 10.46757 h -2.158008 v -10.46757 h -1.827279 v -1.86035 h 5.787761 z" />
      <path
         inkscape:connector-curvature="0"
         id="path3733"
         style="text-align:center;text-anchor:middle;fill:#f69d01;fill-opacity:1;stroke-width:0.264583"
         d="m 65.387176,276.38217 q 0,0.92604 -0.338997,1.71152 -0.330729,0.77721 -0.950846,1.34772 -0.611849,0.57051 -1.488282,0.89297 -0.876432,0.32246 -1.951302,0.32246 -1.215429,0 -2.158007,-0.3886 -0.93431,-0.38861 -1.579232,-1.03353 -0.636654,-0.64493 -0.975651,-1.48002 -0.330729,-0.83509 -0.330729,-1.72806 0,-0.85989 0.28112,-1.49655 0.281119,-0.63665 0.719336,-1.0914 0.446484,-0.45475 0.992187,-0.74414 0.545703,-0.29766 1.07487,-0.47129 0.529166,-0.17363 0.926041,-0.27285 0.405144,-0.0992 0.694532,-0.27285 0.214973,-0.12403 0.305924,-0.29766 0.09922,-0.1819 0.09922,-0.48783 v -0.90123 h -6.622851 v -1.86035 h 12.97285 v 1.86035 h -4.191992 v 0.94258 q 0,0.42994 -0.07441,0.77721 -0.06614,0.339 -0.198437,0.62012 1.389062,0.7276 2.091862,1.71979 0.702799,0.98392 0.702799,2.33164 z m -7.573697,-0.12403 q 0,0.56224 0.198437,1.02526 0.198438,0.46303 0.553971,0.80202 0.355534,0.33073 0.84336,0.5209 0.487825,0.1819 1.058333,0.1819 0.578776,0 1.083138,-0.19844 0.51263,-0.19843 0.884701,-0.5457 0.380338,-0.35553 0.595312,-0.84336 0.214974,-0.48782 0.214974,-1.0666 0,-0.43822 -0.124023,-0.79375 -0.115756,-0.3638 -0.305925,-0.64492 -0.190169,-0.28939 -0.429948,-0.50436 -0.239778,-0.22325 -0.479557,-0.37207 -0.239779,-0.1571 -0.454753,-0.25632 -0.206705,-0.0992 -0.347265,-0.14883 -0.297657,0.0992 -0.661459,0.20671 -0.355533,0.10749 -0.719335,0.25631 -0.363803,0.14056 -0.711068,0.339 -0.347266,0.19844 -0.611849,0.47956 -0.264583,0.28112 -0.429948,0.66973 -0.157096,0.38033 -0.157096,0.89296 z" />
      <path
         inkscape:connector-curvature="0"
         id="path3735"
         style="text-align:center;text-anchor:middle;fill:#f69d01;fill-opacity:1;stroke-width:0.264583"
         d="m 72.274609,269.99083 h -1.802473 v 10.46757 h -2.158008 v -10.46757 h -1.827279 v -1.86035 h 1.860352 q -0.157097,-0.76895 -0.396875,-1.30638 -0.239779,-0.53744 -0.520899,-0.90124 -0.281119,-0.3638 -0.587044,-0.57051 -0.297656,-0.20671 -0.578776,-0.31419 -0.28112,-0.10749 -0.520898,-0.13229 -0.248047,-0.0331 -0.405143,-0.0331 -0.785482,0 -1.174089,0.34727 -0.388607,0.339 -0.388607,0.85989 0,0.4961 0.322461,1.0418 0.314193,0.5457 0.917774,1.09968 h -2.38125 q -0.520899,-0.62839 -0.777214,-1.28985 -0.264583,-0.66146 -0.264583,-1.28157 0,-0.54571 0.223242,-1.02526 0.223242,-0.48783 0.669727,-0.84336 0.446484,-0.35554 1.124479,-0.56224 0.669726,-0.20671 1.579231,-0.20671 1.256771,0 2.158008,0.40515 0.909505,0.39687 1.521354,1.0914 0.611849,0.68626 0.967383,1.62057 0.355534,0.93431 0.504362,2.00092 h 1.934765 z" />
    </g>
    <text
       transform="scale(1.007247,0.99280514)"
       id="text12-64"
       y="252.78017"
       x="115.21338"
       style="font-style:normal;font-variant:normal;font-weight:normal;font-stretch:normal;font-size:14.26px;line-height:1.25;font-family:'Nirmala UI';-inkscape-font-specification:'Nirmala UI';letter-spacing:0px;word-spacing:0px;fill:#f69d01;fill-opacity:1;stroke:none;stroke-width:0.222813"
       xml:space="preserve"><tspan
         style="font-style:normal;font-variant:normal;font-weight:bold;font-stretch:normal;font-size:11.8834px;font-family:'Yu Gothic';-inkscape-font-specification:'Yu Gothic Bold';fill:#f69d01;fill-opacity:1;stroke-width:0.222813"
         y="252.78017"
         x="115.21338"
         id="tspan10"
         sodipodi:role="line">日本語</tspan></text>
    <text
       transform="scale(0.95945976,1.0422532)"
       id="text1372"
       y="44.42498"
       x="32.275265"
       style="font-size:12.1851px;line-height:1.25;font-family:sans-serif;fill:#f69d01;fill-opacity:1;stroke-width:0.253857"
       xml:space="preserve"><tspan
         style="font-style:normal;font-variant:normal;font-weight:normal;font-stretch:normal;font-family:sans-serif;-inkscape-font-specification:sans-serif;fill:#f69d01;fill-opacity:1;stroke-width:0.253857"
         y="44.42498"
         x="32.275265"
         id="tspan1370"
         sodipodi:role="line">digitize Geospatial in</tspan></text>
    <text
       xml:space="preserve"
       style="font-size:7.05556px;line-height:1.25;font-family:sans-serif;stroke-width:0.264583"
       x="39.484207"
       y="302.80026"
       id="text1592"><tspan
         sodipodi:role="line"
         id="tspan1590"
         x="39.484207"
         y="302.80026"
         style="fill:#f69d01;fill-opacity:1;stroke-width:0.264583">designed for undergraduates;</tspan><tspan
         sodipodi:role="line"
         x="39.484207"
         y="311.61972"
         style="fill:#f69d01;fill-opacity:1;stroke-width:0.264583"
         id="tspan1594" /></text>
    <text
       xml:space="preserve"
       style="font-size:7.05556px;line-height:1.25;font-family:sans-serif;stroke-width:0.264583"
       x="8.2974548"
       y="312.30972"
       id="text1598"><tspan
         sodipodi:role="line"
         id="tspan1596"
         x="8.2974548"
         y="312.30972"
         style="fill:#f69d01;fill-opacity:1;stroke-width:0.264583">amateurs can digitize with &lt;2 hours of training</tspan></text>
    <g
       id="g1224"
       transform="matrix(1.0023213,0,0,0.99998196,-0.26265775,-100.08359)">
      <path
         transform="translate(-3.5201713,68.728532)"
         inkscape:original-d="M 3.7847521,32.606882 102.12917,32.808333"
         inkscape:path-effect="#path-effect857"
         inkscape:connector-curvature="0"
         id="path855"
         d="m 3.7847521,32.606882 c 32.7814729,0.06715 65.5629449,0.134301 98.3444179,0.201451"
         style="fill:none;stroke:#f69d37;stroke-width:2.5;stroke-linecap:butt;stroke-linejoin:miter;stroke-miterlimit:4;stroke-dasharray:none;stroke-opacity:1" />
      <path
         transform="translate(0,1.5875)"
         inkscape:original-d="M 0.2645808,101.33541 H 183.72107"
         inkscape:path-effect="#path-effect1220"
         inkscape:connector-curvature="0"
         id="path1218"
         d="m 0.2645808,101.33541 c 61.1521632,0 122.3043292,0 183.4564892,0"
         style="fill:#f69d01;fill-opacity:1;stroke:#f69d01;stroke-width:0.8;stroke-linecap:butt;stroke-linejoin:miter;stroke-miterlimit:4;stroke-dasharray:none;stroke-opacity:1" />
    </g>
    <path
       style="fill:none;stroke:#f69d01;stroke-width:0.6;stroke-linecap:butt;stroke-linejoin:miter;stroke-miterlimit:4;stroke-dasharray:none;stroke-opacity:1"
       d="m 0.79374999,282.31041 c 60.76597001,0 121.53194001,0 182.29791001,0"
       id="path875"
       inkscape:connector-curvature="0"
       inkscape:path-effect="#path-effect877"
       inkscape:original-d="M 0.79374999,282.31041 H 183.09166"
       transform="matrix(1.0087234,0,0,1,-0.80204965,48.647923)" />
  </g>
</svg>
